<svg xmlns="http://www.w3.org/2000/svg" width="137" height="43" viewBox="0 0 137 43">
    <g fill="none" fill-rule="evenodd">
        <path fill="#1E1E1E" d="M5 0h127a5 5 0 0 1 5 5v33a5 5 0 0 1-5 5H5a5 5 0 0 1-5-5V5a5 5 0 0 1 5-5z"/>
        <g fill="#FFF" fill-rule="nonzero">
            <path d="M49.498 28.087H44.39l-1.226 3.653H41l4.838-13.515h2.248l4.838 13.515h-2.2l-1.226-3.653zm-4.579-1.685h4.05l-1.997-5.929h-.056l-1.997 5.929zm18.454.412c0 3.062-1.625 5.03-4.077 5.03a3.306 3.306 0 0 1-3.074-1.725h-.047V35H54.17V21.887h1.941v1.639h.037a3.46 3.46 0 0 1 3.11-1.742c2.48 0 4.115 1.977 4.115 5.03zm-2.061 0c0-1.995-1.023-3.306-2.582-3.306-1.533 0-2.563 1.339-2.563 3.306 0 1.985 1.03 3.315 2.563 3.315 1.56 0 2.582-1.302 2.582-3.315zm12.814 0c0 3.062-1.625 5.03-4.077 5.03a3.306 3.306 0 0 1-3.074-1.725h-.046V35h-2.006V21.887h1.941v1.639h.037a3.46 3.46 0 0 1 3.111-1.742c2.48 0 4.114 1.977 4.114 5.03zm-2.061 0c0-1.995-1.022-3.306-2.582-3.306-1.532 0-2.563 1.339-2.563 3.306 0 1.985 1.03 3.315 2.563 3.315 1.56 0 2.582-1.302 2.582-3.315zm9.168 1.16c.149 1.34 1.44 2.22 3.204 2.22 1.69 0 2.907-.88 2.907-2.088 0-1.049-.734-1.677-2.47-2.107l-1.737-.422c-2.461-.6-3.603-1.76-3.603-3.643 0-2.332 2.014-3.934 4.876-3.934 2.831 0 4.772 1.602 4.838 3.934h-2.025c-.12-1.35-1.226-2.163-2.842-2.163-1.615 0-2.72.823-2.72 2.022 0 .956.705 1.518 2.432 1.948l1.477.366c2.75.656 3.892 1.77 3.892 3.746 0 2.529-1.997 4.113-5.174 4.113-2.971 0-4.978-1.547-5.108-3.991h2.053zm12.557-8.419v2.332h1.858v1.602H93.79v5.432c0 .844.372 1.237 1.189 1.237.22-.004.44-.02.66-.047v1.592c-.368.07-.741.1-1.115.094-1.978 0-2.75-.75-2.75-2.66v-5.648h-1.42v-1.602h1.42v-2.332h2.016zm2.934 7.26c0-3.101 1.81-5.05 4.633-5.05 2.833 0 4.635 1.949 4.635 5.05 0 3.108-1.792 5.048-4.635 5.048-2.84 0-4.633-1.94-4.633-5.049zm7.225 0c0-2.128-.967-3.383-2.592-3.383s-2.59 1.265-2.59 3.382c0 2.135.965 3.381 2.59 3.381s2.592-1.246 2.592-3.38zm3.697-4.928h1.912v1.677h.047a2.333 2.333 0 0 1 2.35-1.78c.231-.001.461.024.687.075v1.892a2.781 2.781 0 0 0-.901-.122 2.012 2.012 0 0 0-1.562.648 2.05 2.05 0 0 0-.528 1.619v5.844h-2.005v-9.853zm14.242 6.96c-.27 1.788-1.997 3.016-4.207 3.016-2.842 0-4.606-1.921-4.606-5.002 0-3.09 1.774-5.095 4.522-5.095 2.703 0 4.403 1.872 4.403 4.86v.693h-6.9v.122a2.58 2.58 0 0 0 .69 1.994 2.534 2.534 0 0 0 1.938.797 2.209 2.209 0 0 0 2.256-1.386h1.904zm-6.78-2.942h4.885a2.381 2.381 0 0 0-.656-1.778 2.34 2.34 0 0 0-1.74-.722 2.463 2.463 0 0 0-1.76.727 2.505 2.505 0 0 0-.728 1.773zM45.307 8.324a2.783 2.783 0 0 1 2.253.9c.582.632.858 1.5.751 2.364 0 2.098-1.102 3.305-3.004 3.305H43v-6.57h2.307zm-1.315 5.64h1.204a1.98 1.98 0 0 0 1.6-.666 2.105 2.105 0 0 0 .506-1.697 2.11 2.11 0 0 0-.515-1.685 1.985 1.985 0 0 0-1.591-.664h-1.204v4.712zm5.44-1.552a2.37 2.37 0 0 1 1.069-2.22 2.23 2.23 0 0 1 2.407 0 2.37 2.37 0 0 1 1.07 2.22c.083.89-.33 1.75-1.068 2.222a2.23 2.23 0 0 1-2.41 0 2.371 2.371 0 0 1-1.068-2.222zm3.567 0c0-1.075-.47-1.703-1.293-1.703-.827 0-1.292.628-1.292 1.703 0 1.083.465 1.706 1.292 1.706.824 0 1.293-.627 1.293-1.706zm7.02 2.48h-.986l-.996-3.65h-.076l-.992 3.65h-.977l-1.328-4.957h.965l.863 3.783h.07l.992-3.783h.912l.99 3.783h.076l.86-3.783h.95l-1.323 4.957zm2.44-4.957h.916v.788h.071c.247-.58.825-.935 1.438-.883.475-.037.94.15 1.265.509.325.359.473.85.403 1.334v3.21h-.95v-2.964c0-.797-.337-1.193-1.04-1.193a1.09 1.09 0 0 0-.857.356c-.22.242-.328.57-.294.9v2.9h-.951V9.935zM68.069 8h.95v6.892h-.95V8zm2.273 4.412a2.37 2.37 0 0 1 1.07-2.22 2.23 2.23 0 0 1 2.407 0 2.37 2.37 0 0 1 1.069 2.22c.084.89-.33 1.75-1.068 2.222a2.23 2.23 0 0 1-2.41 0 2.371 2.371 0 0 1-1.068-2.222zm3.567 0c0-1.075-.47-1.703-1.293-1.703-.826 0-1.292.628-1.292 1.703 0 1.083.466 1.706 1.292 1.706.824 0 1.293-.627 1.293-1.706zm1.98 1.079c0-.893.646-1.407 1.793-1.48l1.305-.078v-.428c0-.523-.337-.819-.987-.819-.53 0-.898.2-1.004.551h-.92c.096-.851.875-1.397 1.968-1.397 1.208 0 1.89.618 1.89 1.665v3.387h-.916v-.696h-.075a1.61 1.61 0 0 1-1.447.778 1.43 1.43 0 0 1-1.124-.375 1.517 1.517 0 0 1-.483-1.108zm3.098-.424v-.414l-1.177.077c-.664.046-.965.278-.965.715 0 .446.377.706.894.706.306.032.612-.066.847-.27a1.18 1.18 0 0 0 .4-.814zm2.197-.655c0-1.567.783-2.559 2-2.559a1.58 1.58 0 0 1 1.478.87h.071V8h.951v6.892h-.911v-.783h-.075a1.663 1.663 0 0 1-1.514.865c-1.226 0-2-.992-2-2.562zm.982 0c0 1.051.482 1.684 1.288 1.684.802 0 1.297-.642 1.297-1.68 0-1.033-.5-1.684-1.297-1.684-.8 0-1.288.637-1.288 1.68zm7.453 0a2.37 2.37 0 0 1 1.07-2.22 2.23 2.23 0 0 1 2.407 0 2.37 2.37 0 0 1 1.069 2.22c.084.89-.33 1.75-1.068 2.222a2.23 2.23 0 0 1-2.41 0 2.371 2.371 0 0 1-1.068-2.222zm3.567 0c0-1.075-.469-1.703-1.293-1.703-.826 0-1.291.628-1.291 1.703 0 1.083.465 1.706 1.291 1.706.824 0 1.293-.627 1.293-1.706zm2.255-2.477h.915v.788h.071c.247-.58.825-.935 1.438-.883.475-.037.94.15 1.265.509.325.359.473.85.403 1.334v3.21h-.95v-2.964c0-.797-.337-1.193-1.04-1.193a1.09 1.09 0 0 0-.857.356c-.22.242-.328.57-.294.9v2.9h-.951V9.935zm9.467-1.234v1.257h1.044v.824h-1.044v2.549c0 .52.208.747.681.747.121 0 .242-.008.363-.023v.815c-.171.031-.344.048-.518.05-1.057 0-1.479-.383-1.479-1.339v-2.8h-.765v-.823h.765V8.7h.953zM107.25 8h.943v2.732h.075c.259-.585.846-.94 1.47-.888.472-.027.93.165 1.252.522.32.358.47.844.407 1.326v3.2h-.952v-2.959c0-.792-.359-1.193-1.03-1.193a1.108 1.108 0 0 0-.891.339 1.178 1.178 0 0 0-.323.918v2.895h-.951V8zm9.693 5.554c-.267.935-1.147 1.54-2.089 1.434a2.161 2.161 0 0 1-1.689-.75 2.295 2.295 0 0 1-.537-1.809 2.33 2.33 0 0 1 .537-1.816 2.196 2.196 0 0 1 1.685-.773c1.341 0 2.15.942 2.15 2.499v.34h-3.403v.056c-.03.368.092.731.336 1.002.245.27.589.422.947.418.466.057.919-.18 1.147-.601h.916zm-3.346-1.598h2.434a1.217 1.217 0 0 0-.317-.912 1.147 1.147 0 0 0-.87-.372 1.215 1.215 0 0 0-.886.372c-.235.241-.365.57-.361.912zM27.87 21.231a5.211 5.211 0 0 1 2.527-4.385 5.455 5.455 0 0 0-4.28-2.28c-1.802-.185-3.548 1.062-4.465 1.062-.936 0-2.349-1.043-3.87-1.012a5.712 5.712 0 0 0-4.797 2.881c-2.074 3.537-.527 8.735 1.46 11.594.994 1.4 2.156 2.963 3.676 2.908 1.487-.061 2.043-.935 3.838-.935 1.78 0 2.3.935 3.852.9 1.596-.026 2.601-1.407 3.56-2.82.715-.997 1.264-2.1 1.629-3.266-1.896-.79-3.129-2.62-3.13-4.647zm-2.93-8.544A5.095 5.095 0 0 0 26.135 9a5.344 5.344 0 0 0-3.44 1.753 4.85 4.85 0 0 0-1.226 3.55 4.423 4.423 0 0 0 3.47-1.616z"/>
        </g>
    </g>
</svg>
