<svg xmlns="http://www.w3.org/2000/svg" width="145" height="43" viewBox="0 0 145 43">
    <defs>
        <linearGradient id="a" x1="61.097%" x2="26.368%" y1="4.948%" y2="71.907%">
            <stop offset="0%" stop-color="#00A0FF"/>
            <stop offset="1%" stop-color="#00A1FF"/>
            <stop offset="26%" stop-color="#00BEFF"/>
            <stop offset="51%" stop-color="#00D2FF"/>
            <stop offset="76%" stop-color="#00DFFF"/>
            <stop offset="100%" stop-color="#00E3FF"/>
        </linearGradient>
        <linearGradient id="b" x1="107.685%" x2="-130.64%" y1="50%" y2="50%">
            <stop offset="0%" stop-color="#FFE000"/>
            <stop offset="41%" stop-color="#FFBD00"/>
            <stop offset="78%" stop-color="#FFA500"/>
            <stop offset="100%" stop-color="#FF9C00"/>
        </linearGradient>
        <linearGradient id="c" x1="86.219%" x2="-50.15%" y1="31.02%" y2="135.498%">
            <stop offset="0%" stop-color="#FF3A44"/>
            <stop offset="100%" stop-color="#C31162"/>
        </linearGradient>
        <linearGradient id="d" x1="-18.754%" x2="42.121%" y1="-11.48%" y2="35.18%">
            <stop offset="0%" stop-color="#32A071"/>
            <stop offset="7%" stop-color="#2DA771"/>
            <stop offset="48%" stop-color="#15CF74"/>
            <stop offset="80%" stop-color="#06E775"/>
            <stop offset="100%" stop-color="#00F076"/>
        </linearGradient>
    </defs>
    <g fill="none" fill-rule="nonzero">
        <rect width="145" height="43" fill="#1E1E1E" rx="5"/>
        <path fill="#FFF" d="M73.21 23.033c-2.512.012-4.54 2.031-4.531 4.513.007 2.482 2.048 4.488 4.56 4.484 2.511-.003 4.545-2.016 4.545-4.498a4.408 4.408 0 0 0-1.321-3.208 4.517 4.517 0 0 0-3.253-1.29zm0 7.23a2.77 2.77 0 0 1-2.687-1.547 2.706 2.706 0 0 1 .47-3.038 2.787 2.787 0 0 1 3.032-.682 2.732 2.732 0 0 1 1.756 2.536 2.586 2.586 0 0 1-.703 1.901 2.65 2.65 0 0 1-1.868.83zm-9.973-7.23c-2.513.006-4.546 2.023-4.543 4.506.004 2.483 2.044 4.493 4.557 4.492 2.513-.002 4.55-2.016 4.55-4.5a4.408 4.408 0 0 0-1.323-3.207 4.517 4.517 0 0 0-3.252-1.29h.01zm0 7.23a2.77 2.77 0 0 1-2.694-1.54 2.706 2.706 0 0 1 .463-3.04 2.787 2.787 0 0 1 3.032-.688 2.732 2.732 0 0 1 1.759 2.537 2.586 2.586 0 0 1-.703 1.901 2.65 2.65 0 0 1-1.868.83h.01zm-11.88-5.843v1.905h4.627a3.968 3.968 0 0 1-1.071 2.403 4.765 4.765 0 0 1-3.567 1.397c-2.84 0-5.142-2.275-5.142-5.08 0-2.807 2.302-5.081 5.142-5.081a4.96 4.96 0 0 1 3.503 1.365l1.36-1.344a6.78 6.78 0 0 0-4.853-1.98 7.102 7.102 0 0 0-6.36 3.415 6.925 6.925 0 0 0 0 7.153 7.102 7.102 0 0 0 6.36 3.415 6.468 6.468 0 0 0 4.939-1.958 6.307 6.307 0 0 0 1.671-4.467 6.142 6.142 0 0 0-.107-1.196l-6.503.053zm48.538 1.482a4.28 4.28 0 0 0-3.9-2.869 4.31 4.31 0 0 0-3.128 1.332 4.204 4.204 0 0 0-1.156 3.167 4.376 4.376 0 0 0 1.293 3.198 4.484 4.484 0 0 0 3.227 1.3 4.547 4.547 0 0 0 3.793-1.99l-1.554-1.058a2.61 2.61 0 0 1-2.239 1.25 2.316 2.316 0 0 1-2.207-1.366l6.096-2.488-.225-.476zm-6.213 1.503a2.448 2.448 0 0 1 .63-1.806 2.508 2.508 0 0 1 1.748-.82 1.772 1.772 0 0 1 1.692.953l-4.07 1.673zm-4.95 4.36h2.004v-13.23h-2.004v13.23zm-3.278-7.726h-.075a3.231 3.231 0 0 0-2.4-1.059c-2.43.117-4.342 2.099-4.342 4.504 0 2.406 1.911 4.388 4.343 4.504a3.123 3.123 0 0 0 2.4-1.058h.064v.645c0 1.726-.932 2.647-2.432 2.647a2.516 2.516 0 0 1-2.293-1.599l-1.746.72A4.34 4.34 0 0 0 83.012 36c2.346 0 4.285-1.366 4.285-4.69v-8.012h-1.843v.74zm-2.292 6.224c-1.432-.125-2.531-1.31-2.531-2.731 0-1.421 1.099-2.606 2.53-2.731.693.035 1.342.345 1.8.859.457.514.686 1.189.633 1.872a2.5 2.5 0 0 1-.63 1.882 2.562 2.562 0 0 1-1.813.849h.01zm26.117-11.728h-4.788v13.23h2.003V26.75h2.796a4.182 4.182 0 0 0 3.857-1.964 4.076 4.076 0 0 0 0-4.287 4.182 4.182 0 0 0-3.857-1.963h-.01zm0 6.35h-2.796v-4.509h2.839c1.27 0 2.298 1.017 2.298 2.27 0 1.255-1.029 2.271-2.298 2.271l-.043-.031zm12.352-1.905a3.758 3.758 0 0 0-3.568 2.022l1.779.73a1.902 1.902 0 0 1 1.82-.973c.515-.06 1.03.087 1.434.408a1.9 1.9 0 0 1 .71 1.296v.137a4.467 4.467 0 0 0-2.09-.508c-1.917 0-3.856 1.059-3.856 2.975.038.825.413 1.6 1.038 2.148a3.12 3.12 0 0 0 2.283.763 2.828 2.828 0 0 0 2.57-1.27h.065v1.058h1.928v-5.092c0-2.318-1.778-3.662-4.06-3.662l-.053-.032zm-.247 7.251c-.653 0-1.564-.328-1.564-1.122 0-1.058 1.136-1.408 2.143-1.408a3.59 3.59 0 0 1 1.821.445 2.41 2.41 0 0 1-2.346 2.117l-.054-.032zm11.388-6.933l-2.293 5.737h-.064l-2.378-5.737h-2.143l3.568 8.023-2.036 4.457h2.09L135 23.298h-2.228zm-18.008 8.468h2.003V18.535h-2.003v13.23z"/>
        <path fill="#FFF" stroke="#FFF" stroke-width=".2" d="M50.565 10.775a3.077 3.077 0 0 1-3.187 3.223c-1.37-.011-2.6-.868-3.122-2.176a3.595 3.595 0 0 1 .733-3.812 3.191 3.191 0 0 1 2.389-1.003c.456-.002.909.093 1.329.278.39.163.739.42 1.016.747l-.573.591a2.132 2.132 0 0 0-1.772-.791 2.47 2.47 0 0 0-1.812.785 2.633 2.633 0 0 0-.706 1.89c-.015 1.064.592 2.031 1.537 2.453a2.492 2.492 0 0 0 2.785-.523c.333-.372.525-.855.54-1.36h-2.344v-.803h3.144c.029.165.043.333.043.501zm4.95-2.787h-2.918v2.118h2.658v.803h-2.658v2.119h2.918v.825h-3.782v-6.69h3.782v.825zm3.544 5.865h-.832V7.988h-1.815v-.825h4.506v.825H59.06v5.865zm5.036 0v-6.69h.832v6.69h-.832zm4.528 0h-.832V7.988h-1.815v-.825h4.452v.825h-1.805v5.865zm10.245-.87a3.298 3.298 0 0 1-4.755 0 3.697 3.697 0 0 1 0-4.962A3.299 3.299 0 0 1 76.49 7c.893 0 1.749.368 2.378 1.021a3.685 3.685 0 0 1 0 4.962zm-4.14-.557c.975 1 2.55 1 3.524 0a2.922 2.922 0 0 0 0-3.836c-.974-1-2.55-1-3.523 0a2.922 2.922 0 0 0 0 3.836zm6.269 1.427v-6.69h1.015l3.156 5.207V7.163H86v6.69h-.865L81.84 8.4v5.453h-.842z"/>
        <path fill="url(#a)" d="M1.555.582a2.15 2.15 0 0 0-.497 1.507v23.822a2.15 2.15 0 0 0 .497 1.507l.076.076 13.381-13.332v-.313L1.631.506l-.076.076z" transform="translate(10 8)"/>
        <path fill="url(#b)" d="M19.44 18.61l-4.428-4.448v-.313l4.428-4.458.097.054 5.303 3.004c1.512.851 1.512 2.251 0 3.113l-5.281 2.993-.119.054z" transform="translate(10 8)"/>
        <path fill="url(#c)" d="M19.57 18.545L15.012 14 1.555 27.418c.636.558 1.58.585 2.247.065l15.778-8.938" transform="translate(10 8)"/>
        <path fill="url(#d)" d="M19.57 9.455L3.79.517a1.764 1.764 0 0 0-2.246.065L15.012 14l4.558-4.545z" transform="translate(10 8)"/>
        <path fill="#000" d="M29.44 26.448l-15.65 8.884c-.64.478-1.519.478-2.16 0l-.075.076.076.075c.639.481 1.52.481 2.16 0l15.779-8.938-.13-.097z" opacity=".2"/>
        <path fill="#000" d="M11.555 35.268a2.15 2.15 0 0 1-.497-1.508v.162a2.15 2.15 0 0 0 .497 1.507l.076-.075-.076-.086zM34.84 23.4l-5.4 3.048.097.097 5.303-2.994A1.885 1.885 0 0 0 35.92 22a2.004 2.004 0 0 1-1.08 1.4z" opacity=".12"/>
        <path fill="#FFF" d="M13.79 8.668L34.84 20.6c.558.275.957.792 1.08 1.4a1.885 1.885 0 0 0-1.08-1.55L13.79 8.516c-1.511-.85-2.742-.14-2.742 1.583v.162c.032-1.734 1.242-2.445 2.743-1.594z" opacity=".25"/>
    </g>
</svg>
